PathFileType	4	(X/Y/Z)	C:/Users/opensim2020/Desktop/walking_exp_matlab/subject06_walking15_straight_01.trc	
DataRate	CameraRate	NumFrames	NumMarkers	Units	OrigDataRate	OrigDataStartFrame	OrigNumFrames	
100.00	100.00	5	47	mm	100.00	805	232	
Frame#	Time	LFHD			RFHD			LBHD			RBHD			C7			T10			CLAV			STRN			RBAK			LSHO			LUPA			LELB			LFRM			LWRA			LWRB			LFIN			RSHO			RUPA			RELB			RFRM			RWRA			RWRB			RFIN			LASI			RASI			LPSI			RPSI			LTHI			LKNE			LTIB			LANK			LHEE			LTOE			RTHI			RKNE			RTIB			RANK			RHEE			RTOE			*39			*40			*41			*42			*43			*44			*45			*46			
		X1	Y1	Z1	X2	Y2	Z2	X3	Y3	Z3	X4	Y4	Z4	X5	Y5	Z5	X6	Y6	Z6	X7	Y7	Z7	X8	Y8	Z8	X9	Y9	Z9	X10	Y10	Z10	X11	Y11	Z11	X12	Y12	Z12	X13	Y13	Z13	X14	Y14	Z14	X15	Y15	Z15	X16	Y16	Z16	X17	Y17	Z17	X18	Y18	Z18	X19	Y19	Z19	X20	Y20	Z20	X21	Y21	Z21	X22	Y22	Z22	X23	Y23	Z23	X24	Y24	Z24	X25	Y25	Z25	X26	Y26	Z26	X27	Y27	Z27	X28	Y28	Z28	X29	Y29	Z29	X30	Y30	Z30	X31	Y31	Z31	X32	Y32	Z32	X33	Y33	Z33	X34	Y34	Z34	X35	Y35	Z35	X36	Y36	Z36	X37	Y37	Z37	X38	Y38	Z38	X39	Y39	Z39	X40	Y40	Z40	X41	Y41	Z41	X42	Y42	Z42	X43	Y43	Z43	X44	Y44	Z44	X45	Y45	Z45	X46	Y46	Z46	X47	Y47	Z47	

30	0.290	1365.47046	-884.15930	1644.53638	1496.74609	-878.34039	1635.82043	1371.30896	-1017.76392	1589.42969	1500.48157	-1010.18854	1585.69873	1423.40955	-1016.32703	1435.57813	1422.64587	-1066.44604	1108.18445	1424.12537	-906.96838	1354.32849	1411.73340	-876.30396	1179.06689	1494.75000	-1098.24438	1266.70142	1261.47681	-959.38922	1391.53503	1184.82422	-943.88068	1191.16870	1170.36133	-928.95337	1079.01099	1160.98120	-837.33405	960.09064	1212.88623	-727.29077	904.74158	1180.94336	-773.22650	861.29486	1185.80103	-692.68292	820.24927	1585.84644	-954.75629	1382.58484	1664.75024	-1031.26904	1193.76306	1678.62378	-1049.84814	1074.26001	1701.67554	-1073.14966	957.13544	1687.84595	-1058.04236	803.12762	1716.59802	-1115.35583	825.50177	1726.99011	-1108.07947	741.70557	1312.83533	-899.16864	939.13220	1532.08582	-883.55371	957.92474	1350.08093	-1052.45850	969.35962	1517.69202	-1039.44214	981.45343	1273.96558	-1013.57507	627.34558	1299.50793	-1051.86670	467.28198	1307.98743	-1203.62451	256.72678	1350.52551	-1294.84033	110.88244	1394.37048	-1340.04053	113.84202	1350.85571	-1171.98059	39.41584	1602.08826	-866.98004	637.45483	1572.62170	-826.57324	521.66479	1580.95117	-811.67273	256.27701	1538.69958	-786.32483	72.21432	1492.76099	-820.55066	46.88238	1539.79419	-632.42383	45.00364	1427.92407	-982.52509	1683.59131																					 
31	0.300	1366.92334	-875.72491	1646.38965	1498.22778	-870.20245	1637.71326	1372.72314	-1009.18939	1590.87305	1501.89001	-1001.71295	1587.21265	1424.70520	-1007.51007	1437.05396	1423.36121	-1057.08582	1109.87317	1425.60583	-897.74420	1356.17578	1413.24060	-866.81995	1180.95007	1495.91602	-1088.97485	1268.35901	1262.86267	-950.09570	1393.34192	1186.49768	-935.80292	1192.76758	1172.40051	-921.08411	1080.59949	1162.37134	-831.19958	960.02917	1213.48267	-722.29608	902.45178	1181.72314	-769.10852	859.81305	1185.81372	-689.37689	817.38855	1587.07275	-945.76245	1384.44617	1666.06250	-1021.12122	1195.09106	1679.87158	-1038.87915	1075.56726	1702.92517	-1061.27625	958.25592	1688.79272	-1045.19397	804.24744	1718.05261	-1102.49915	826.42975	1728.14539	-1094.74512	742.51709	1314.67822	-888.60730	940.44867	1533.73669	-873.63232	961.17572	1350.30627	-1041.83777	970.73834	1517.89673	-1029.51050	983.63983	1275.45947	-1002.63422	627.98218	1301.38647	-1039.65833	467.78549	1309.20947	-1196.10571	260.75806	1350.89221	-1290.80286	117.08880	1394.77698	-1335.51355	121.35275	1351.24805	-1171.13916	39.89965	1603.05566	-857.60809	640.11047	1573.50281	-818.09778	523.51324	1581.29846	-807.07855	257.46167	1538.92004	-785.36176	72.52065	1493.38831	-820.36377	47.06560	1538.51794	-631.71674	44.45288	1429.29553	-974.27905	1685.17322																					 
32	0.310	1368.32581	-867.29865	1648.44702	1499.61487	-861.66388	1639.64160	1374.05115	-1000.60577	1592.65466	1503.21875	-993.16016	1588.99023	1425.97546	-998.65149	1438.75208	1424.19177	-1047.56848	1111.79211	1426.92297	-888.67493	1358.19031	1414.72852	-857.17566	1183.12891	1496.78687	-1079.65747	1270.26331	1264.24451	-940.82770	1395.40662	1188.24841	-927.29047	1194.63354	1174.53076	-913.34717	1082.37402	1163.77710	-825.59290	960.21814	1213.89783	-717.58789	900.26135	1182.54797	-765.80774	858.60315	1185.83118	-686.80988	814.63300	1588.26270	-936.96570	1386.60120	1667.33142	-1011.05615	1196.72510	1681.11084	-1027.80371	1077.07922	1704.22168	-1049.24390	959.62323	1689.80994	-1031.91699	805.72479	1719.37183	-1089.13049	827.36554	1729.31812	-1080.73889	743.49207	1316.66882	-878.03113	942.11237	1535.74756	-864.49109	964.04175	1350.81433	-1031.32239	972.39313	1518.36072	-1019.70599	985.83716	1277.39587	-991.09613	628.82813	1303.17932	-1026.54602	468.25015	1310.67700	-1187.84949	265.12350	1351.72620	-1285.87000	123.80411	1395.80823	-1330.03430	129.54556	1351.57922	-1170.02405	40.42815	1603.95068	-848.53369	642.43073	1573.65735	-810.78394	524.63263	1581.60852	-802.88818	258.30359	1538.94067	-784.46442	72.68398	1493.66882	-820.23389	47.18535	1537.76282	-631.17786	43.80767	1430.65662	-965.92926	1686.99341																					 
33	0.320	1369.72681	-858.69153	1650.61633	1500.96924	-853.11810	1641.69299	1375.25854	-991.90967	1594.63940	1504.44995	-984.61017	1590.92871	1427.13953	-989.69342	1440.59888	1425.23816	-1037.97205	1113.84363	1428.26880	-879.43512	1360.41370	1416.12317	-847.62616	1185.44702	1497.62891	-1070.28821	1272.34058	1265.70276	-931.61487	1397.58057	1189.95227	-918.46185	1196.78845	1176.66394	-905.77917	1084.48083	1165.11658	-820.33966	960.38208	1214.58044	-713.66760	897.68237	1183.22461	-762.69806	857.43134	1185.66919	-684.66370	811.92950	1589.40381	-928.09564	1388.89124	1668.67200	-1000.99176	1198.60791	1682.43677	-1016.84454	1078.85376	1705.28003	-1037.84412	961.50098	1690.87866	-1018.12854	807.39679	1720.67908	-1075.36194	828.52014	1730.50671	-1066.17175	744.72272	1318.92896	-867.42603	944.12494	1537.59827	-855.42139	966.71899	1351.67419	-1020.99878	974.32941	1519.16675	-1010.03107	987.96075	1279.27087	-979.34772	629.79559	1304.65417	-1012.88062	468.82965	1312.45264	-1178.74121	269.76886	1353.18628	-1279.96252	130.84590	1397.69531	-1323.26672	138.26134	1352.11487	-1168.66968	40.84698	1604.79163	-840.51990	643.71277	1573.67578	-804.80518	525.02277	1581.74109	-799.08905	258.62991	1538.72888	-783.91071	72.78610	1493.77234	-820.39459	47.42214	1537.33289	-630.89172	43.38283	1431.98767	-957.42059	1689.00122																					 
34	0.330	1371.09167	-850.01990	1652.86279	1502.32520	-844.75592	1643.95459	1376.42004	-983.22473	1596.79346	1505.59375	-976.05371	1592.96387	1428.27771	-980.82129	1442.55835	1426.43860	-1028.43408	1115.96545	1429.52356	-870.29016	1362.74097	1417.61194	-837.96967	1187.83167	1498.50940	-1060.94604	1274.42224	1267.06787	-922.41113	1399.83374	1191.69727	-909.45197	1199.02283	1178.79651	-898.36395	1086.44946	1166.18616	-815.88080	960.64789	1214.46655	-709.63892	895.51428	1183.70203	-760.10175	856.18243	1185.60876	-682.88013	809.09601	1590.44971	-919.27423	1391.37292	1670.18274	-990.22498	1200.44836	1683.77637	-1005.85492	1080.71936	1706.52869	-1025.40552	963.09943	1691.91248	-1003.88239	809.28833	1721.90833	-1061.31396	829.76599	1731.78101	-1051.13782	746.09210	1320.82861	-857.58691	946.21350	1539.70752	-845.81964	969.41284	1352.92566	-1010.88611	976.32104	1520.39014	-1000.27612	989.96155	1280.97974	-967.28308	630.84906	1305.74573	-998.34216	469.42712	1314.49097	-1168.57654	274.50244	1355.34424	-1273.01575	138.33659	1400.51306	-1314.98743	147.33258	1353.12939	-1166.97290	41.46134	1605.56726	-833.94354	644.04034	1574.72742	-799.36993	525.48010	1581.77942	-795.90875	258.52216	1538.43091	-783.42657	72.79932	1493.73010	-820.46863	47.51316	1536.81189	-630.70532	43.15345	1433.27966	-948.86932	1691.14563																					 
